<svg id="Layer_1" data-name="Layer 1" xmlns="http://www.w3.org/2000/svg" viewBox="0 0 311 311">
  <defs>
    <style>
      .cls-1 {
        fill: #f2f2f2;
      }

      .cls-2 {
        fill: #b21a20;
      }

      .cls-3 {
        fill: #262525;
      }
    </style>
  </defs>
  <rect class="cls-1" width="311" height="311" rx="71.62"/>
  <path class="cls-2" d="M216.36,108.61a389.87,389.87,0,0,1-120.55,0c2.45-8.74,4.64-16.8,7-24.81,1.41-4.82,3-9.59,4.6-14.34,2.11-6.2,4-7.58,10.59-6.49,8.15,1.35,16.21,3.27,24.32,4.86,4.17.81,8.37,2,12.55,2,4.77,0,9.57-1,14.3-1.92,7.55-1.4,15-3.06,22.57-4.57,9.11-1.82,11.38-.6,14,8.13C209.29,83.55,212.68,95.75,216.36,108.61Z"/>
  <path class="cls-3" d="M96.86,217.33l6.13-16c7.32,0,14.7,0,22.08,0,3.91,0,8.37-6,6.83-9.58a5,5,0,0,0-3.78-2.26c-8-.22-16-.16-24-.13-3.54,0-5.81,1.95-7,5.16-3.45,9.57-6.94,19.13-10.21,28.76-1.71,5.07-.32,6.88,5.06,6.91,15.82.07,31.65,0,48.17,0-2.57,5.87-4.94,11.48-7.56,17-.34.7-2,1.12-3,1.12-18.8.05-37.6.2-56.39-.08-9.94-.14-14.76-6.57-11.79-16.07q7.07-22.59,15.32-44.8c3.84-10.35,11.88-15.54,23-15.59,15.69-.07,31.38-.08,47.07.06,8.6.08,12.33,4.85,9.83,13.06-2.44,8-5.39,15.92-8.6,23.67-2.38,5.75-7.7,8.45-13.49,8.65C122.18,217.64,109.76,217.33,96.86,217.33Z"/>
  <path class="cls-2" d="M169.32,189.29c2.23-5.78,4.08-10.9,6.23-15.88.36-.84,2-1.56,3.13-1.57,17.62-.1,35.24-.34,52.85,0,11,.22,15.83,7.11,12.34,17.7-6.18,18.79-12.93,37.39-19.34,56.1-.78,2.28-2,2.79-4.24,2.78-19.1-.09-38.2,0-57.3-.1-11-.06-15.27-6.15-11.78-16.56,1.69-5,3.46-10.05,5.34-15,4-10.54,11.33-15.88,22.56-16.08,11.4-.2,22.8-.07,34.2-.1,4.52,0,7.33-2.79,7.14-7.33-.16-3.71-3-3.86-5.8-3.87q-19.76-.08-39.52-.08Zm42.14,27.92c-9.28,0-18.29-.15-27.3.06-5.88.14-7.63,1.88-9.06,7.72-1,3.93-.09,5.21,4,5.28,5.47.09,10.94,0,16.41-.06,13.6-.2,10.89,2.43,15.92-11.74A5.06,5.06,0,0,0,211.46,217.21Z"/>
  <path class="cls-2" d="M91.59,118.75c2.31.94,4.56,2.45,7,2.71,14.39,1.58,28.79,3.46,43.23,4.12,23.83,1.1,47.63.29,71.18-4,2.69-.48,5.21-1.93,7.81-2.94-.1-.58-.2-1.15-.29-1.73,7.79,1.6,15.65,3,23.35,4.94,2.56.66,4.72,2.86,7.06,4.36-2.26,1.46-4.36,3.7-6.83,4.23-9.65,2.08-19.35,4.29-29.15,5.23a628.93,628.93,0,0,1-107.27.86c-13.35-1-26.6-3.65-39.81-6-2.74-.49-5.15-2.89-7.7-4.41,2.66-1.56,5.14-3.84,8-4.56,7.71-1.92,15.59-3.16,23.41-4.68C91.56,117.54,91.57,118.14,91.59,118.75Z"/>
  <path class="cls-2" d="M87.13,144.39c8-.78,14.37-1.76,20.81-2,13.74-.48,27.4-.49,40.94,3.08a32.44,32.44,0,0,0,15.36-.13c14-3.4,28.1-3.48,42.28-2.89a133.46,133.46,0,0,1,13.66,1.45c1.24.18,3.29,1.2,3.33,1.93.07,1.35-.92,2.85-1.72,4.14-.6,1-2.06,1.56-2.33,2.54-2.2,7.92-8.52,10.67-15.49,11a195.77,195.77,0,0,1-27.7-.94c-5.09-.49-9.09-3.85-12.21-8.12a9.45,9.45,0,0,0-15.63.07,19.85,19.85,0,0,1-13,8.52,69.14,69.14,0,0,1-30.76-.29c-5.28-1.28-9.54-3.77-11.45-9.32-.45-1.29-1.86-2.22-2.68-3.41C89.55,148.58,88.7,147,87.13,144.39Z"/>
</svg>
